<svg width="512" height="512" viewBox="0 0 512 512" fill="none" xmlns="http://www.w3.org/2000/svg">
  <rect width="512" height="512" rx="110" fill="#1e40af"/>
  <g filter="url(#shadow)">
    <path d="M256 120c-44.18 0-80 35.82-80 80 0 17.67 5.77 34.01 15.52 47.24L256 360l64.48-112.76C330.23 234.01 336 217.67 336 200c0-44.18-35.82-80-80-80zm0 110c-16.54 0-30-13.46-30-30s13.46-30 30-30 30 13.46 30 30-13.46 30-30 30z" fill="#60a5fa"/>
    <path d="M180 280c-8.284 0-15 6.716-15 15 0 8.284 6.716 15 15 15h152c8.284 0 15-6.716 15-15 0-8.284-6.716-15-15-15H180z" fill="#93c5fd"/>
    <path d="M200 330c-8.284 0-15 6.716-15 15 0 8.284 6.716 15 15 15h112c8.284 0 15-6.716 15-15 0-8.284-6.716-15-15-15H200z" fill="#93c5fd"/>
    <circle cx="160" cy="380" r="12" fill="#dbeafe"/>
    <circle cx="200" cy="380" r="12" fill="#dbeafe"/>
    <circle cx="240" cy="380" r="12" fill="#dbeafe"/>
    <circle cx="280" cy="380" r="12" fill="#dbeafe"/>
    <circle cx="320" cy="380" r="12" fill="#dbeafe"/>
    <circle cx="360" cy="380" r="12" fill="#dbeafe"/>
  </g>
  <defs>
    <filter id="shadow" x="0" y="0" width="512" height="512" filterUnits="userSpaceOnUse">
      <feGaussianBlur stdDeviation="5" result="blur"/>
      <feOffset in="blur" dx="0" dy="4" result="offsetBlur"/>
    </filter>
  </defs>
</svg>
